HIERARCHY
ROOT Hips
{
	OFFSET 0.000000 0.000000 0.000000
	CHANNELS 6 Xposition Yposition Zposition Zrotation Yrotation Xrotation 
	JOINT LHipJoint
	{
		OFFSET 0.000000 0.000000 0.000000
		CHANNELS 3 Zrotation Yrotation Xrotation
		JOINT LeftUpLeg
		{
			OFFSET 1.363060 -1.794630 0.839290
			CHANNELS 3 Zrotation Yrotation Xrotation
			JOINT LeftLeg
			{
				OFFSET 2.448110 -6.726130 0.000000
				CHANNELS 3 Zrotation Yrotation Xrotation
				JOINT LeftFoot
				{
					OFFSET 2.562200 -7.039590 0.000000
					CHANNELS 3 Zrotation Yrotation Xrotation
					JOINT LeftToeBase
					{
						OFFSET 0.157640 -0.433110 2.322550
						CHANNELS 3 Zrotation Yrotation Xrotation
						End Site
						{
							OFFSET 0.000000 0.000000 0.000000
						}
					}
				}
			}
		}
	}
	JOINT RHipJoint
	{
		OFFSET 0.000000 0.000000 0.000000
		CHANNELS 3 Zrotation Yrotation Xrotation
		JOINT RightUpLeg
		{
			OFFSET -1.305520 -1.794630 0.839290
			CHANNELS 3 Zrotation Yrotation Xrotation
			JOINT RightLeg
			{
				OFFSET -2.542530 -6.985550 0.000000
				CHANNELS 3 Zrotation Yrotation Xrotation
				JOINT RightFoot
				{
					OFFSET -2.568260 -7.056230 0.000000
					CHANNELS 3 Zrotation Yrotation Xrotation
					JOINT RightToeBase
					{
						OFFSET -0.164730 -0.452590 2.363150
						CHANNELS 3 Zrotation Yrotation Xrotation
						End Site
						{
							OFFSET 0.000000 0.000000 0.000000
						}
					}
				}
			}
		}
	}
	JOINT LowerBack
	{
		OFFSET 0.000000 0.000000 0.000000
		CHANNELS 3 Zrotation Yrotation Xrotation
		JOINT Spine
		{
			OFFSET 0.028270 2.035590 -0.193380
			CHANNELS 3 Zrotation Yrotation Xrotation
			JOINT Spine1
			{
				OFFSET 0.056720 2.048850 -0.042750
				CHANNELS 3 Zrotation Yrotation Xrotation
				JOINT Neck
				{
					OFFSET 0.000000 0.000000 0.000000
					CHANNELS 3 Zrotation Yrotation Xrotation
					JOINT Neck1
					{
						OFFSET -0.054170 1.746240 0.172020
						CHANNELS 3 Zrotation Yrotation Xrotation
						JOINT Head
						{
							OFFSET 0.104070 1.761360 -0.123970
							CHANNELS 3 Zrotation Yrotation Xrotation
							End Site
							{
								OFFSET 0.000000 0.000000 0.000000
							}
						}
					}
				}
				JOINT LeftShoulder
				{
					OFFSET 0.000000 0.000000 0.000000
					CHANNELS 3 Zrotation Yrotation Xrotation
					JOINT LeftArm
					{
						OFFSET 3.362410 1.200890 -0.311210
						CHANNELS 3 Zrotation Yrotation Xrotation
						JOINT LeftForeArm
						{
							OFFSET 4.983000 -0.000000 -0.000000
							CHANNELS 3 Zrotation Yrotation Xrotation
							JOINT LeftHand
							{
								OFFSET 3.483560 -0.000000 -0.000000
								CHANNELS 3 Zrotation Yrotation Xrotation
								JOINT LeftFingerBase
								{
									OFFSET 0.000000 0.000000 0.000000
									CHANNELS 3 Zrotation Yrotation Xrotation
									JOINT LeftHandIndex1
									{
										OFFSET 0.715260 -0.000000 -0.000000
										CHANNELS 3 Zrotation Yrotation Xrotation
										End Site
										{
											OFFSET 0.000000 0.000000 0.000000
										}
									}
								}
								JOINT LThumb
								{
									OFFSET 0.000000 0.000000 0.000000
									CHANNELS 3 Zrotation Yrotation Xrotation
									End Site
									{
										OFFSET 0.000000 0.000000 0.000000
									}
								}
							}
						}
					}
				}
				JOINT RightShoulder
				{
					OFFSET 0.000000 0.000000 0.000000
					CHANNELS 3 Zrotation Yrotation Xrotation
					JOINT RightArm
					{
						OFFSET -3.136600 1.374050 -0.404650
						CHANNELS 3 Zrotation Yrotation Xrotation
						JOINT RightForeArm
						{
							OFFSET -5.241900 -0.000000 -0.000000
							CHANNELS 3 Zrotation Yrotation Xrotation
							JOINT RightHand
							{
								OFFSET -3.444170 -0.000000 -0.000000
								CHANNELS 3 Zrotation Yrotation Xrotation
								JOINT RightFingerBase
								{
									OFFSET 0.000000 0.000000 0.000000
									CHANNELS 3 Zrotation Yrotation Xrotation
									JOINT RightHandIndex1
									{
										OFFSET -0.622530 -0.000000 -0.000000
										CHANNELS 3 Zrotation Yrotation Xrotation
										End Site
										{
											OFFSET 0.000000 0.000000 0.000000
										}
									}
								}
								JOINT RThumb
								{
									OFFSET 0.000000 0.000000 0.000000
									CHANNELS 3 Zrotation Yrotation Xrotation
									End Site
									{
										OFFSET 0.000000 0.000000 0.000000
									}
								}
							}
						}
					}
				}
			}
		}
	}
}
MOTION
Frames: 12
Frame Time: 0.008333
-6.221940 12.375760 1.638917 14.868900 -88.818561 41.471398 -8.259795 -3.625660 3.715787 -2.997893 -23.642073 -113.026476 3.660504 6.965796 100.790254 2.795891 3.461652 -38.920459 -2.866600 0.000000 -22.190200 6.960460 4.747806 4.810404 -2.053152 18.379793 -122.483647 -6.389870 -8.315174 106.046316 -0.037517 3.004359 -16.756724 -0.146500 0.000000 -71.838900 1.727270 -2.714303 -4.496933 -0.872643 -3.144077 -4.246896 -7.421586 -3.460248 -0.255339 13.455139 -5.647860 -13.749254 -4.492435 -0.258439 -2.536011 0.000000 0.000000 0.000000 -5.310875 4.754947 4.429312 -60.932635 1.255566 17.252992 -2.056167 -39.630150 -0.021531 6.763925 5.347567 0.314649 -0.100255 0.111519 -0.000000 0.000000 0.000000 0.000000 0.000000 0.000000 0.000000 25.671442 -3.325097 5.326180 65.801964 -4.449085 3.689011 2.975018 11.285638 0.002549 5.017364 -6.415308 -0.277261 0.025414 -0.058833 0.000000 0.000000 0.000000 0.000000 0.000000 0.000000 0.000000 
-6.357986 12.246236 1.627774 20.457703 -88.418105 36.571444 -8.194064 -3.587812 3.867391 -2.784228 -24.324952 -113.984718 3.861885 7.037372 102.283930 2.851090 3.417852 -39.789397 -2.942500 -0.000000 -22.701900 7.063846 4.902299 4.937441 -2.331192 18.291380 -123.074681 -6.549214 -8.444477 107.313546 -0.215369 2.484991 -18.959363 -0.112400 0.000000 -70.071800 1.759915 -2.776809 -4.803557 -0.871082 -3.229415 -4.289456 -7.472216 -3.549647 -0.142969 13.623188 -5.882092 -13.944866 -4.515700 -0.259436 -2.596314 0.000000 0.000000 0.000000 -5.542931 4.948129 4.446575 -60.728583 1.643482 17.582534 -2.096774 -38.562078 -0.019937 6.024898 6.276264 0.330709 -0.093369 0.101028 -0.000000 0.000000 0.000000 0.000000 0.000000 0.000000 0.000000 26.031507 -3.659344 5.318953 65.642952 -5.169118 2.320531 2.901485 10.083079 0.000946 4.401415 -6.916114 -0.262288 0.027550 -0.053041 0.000000 0.000000 0.000000 0.000000 0.000000 0.000000 0.000000 
-6.494491 12.123666 1.616190 24.751122 -87.998751 32.955812 -8.141710 -3.563530 4.034337 -2.564369 -24.982509 -114.882069 4.055934 7.104983 103.676109 2.892584 3.343539 -40.547973 -2.991200 0.000000 -23.417900 7.167742 5.026108 5.074088 -2.572187 18.188120 -123.603250 -6.692860 -8.569158 108.507351 -0.400643 2.008484 -21.170480 -0.037400 0.000000 -68.438800 1.778343 -2.856233 -5.145674 -0.871277 -3.332680 -4.342763 -7.518286 -3.657131 -0.040285 13.765105 -6.061962 -14.120549 -4.540201 -0.260739 -2.650157 0.000000 0.000000 0.000000 -5.777165 5.104507 4.476400 -60.527990 2.043369 17.819942 -2.139553 -37.539743 -0.018553 5.234867 7.360355 0.338569 -0.086502 0.090646 -0.000000 0.000000 0.000000 0.000000 0.000000 0.000000 0.000000 26.349439 -3.937612 5.306385 65.528157 -5.797013 0.730886 2.813511 8.890286 -0.000387 3.704278 -7.180112 -0.228909 0.029795 -0.049232 0.000000 0.000000 0.000000 0.000000 0.000000 0.000000 0.000000 
-6.630679 12.009576 1.604263 28.040423 -87.584691 30.324031 -8.104058 -3.549651 4.209376 -2.336872 -25.591347 -115.708568 4.242535 7.167678 104.959396 2.921915 3.255754 -41.189623 -3.018500 -0.000000 -24.322200 7.266806 5.127120 5.216308 -2.786860 18.087164 -124.083718 -6.827148 -8.684584 109.622096 -0.583430 1.588223 -23.258633 0.068600 0.000000 -67.050800 1.782131 -2.940662 -5.507971 -0.872904 -3.440860 -4.401446 -7.554803 -3.769214 0.059246 13.881488 -6.228052 -14.292758 -4.562038 -0.261766 -2.703120 0.000000 0.000000 0.000000 -6.021463 5.253087 4.508785 -60.339211 2.362518 17.980071 -2.185473 -36.379116 -0.017342 4.538198 8.262374 0.330634 -0.080531 0.082111 -0.000000 0.000000 0.000000 0.000000 0.000000 0.000000 0.000000 26.618396 -4.202274 5.292384 65.441333 -6.267601 -0.873556 2.720613 7.713844 -0.001477 2.995007 -7.265333 -0.186926 0.031994 -0.046739 0.000000 0.000000 0.000000 0.000000 0.000000 0.000000 0.000000 
-6.766217 11.905331 1.592329 30.478486 -87.199500 28.516501 -8.084255 -3.543148 4.387825 -2.100027 -26.127438 -116.449170 4.420427 7.224270 106.125823 2.941576 3.170023 -41.720460 -3.031900 -0.000000 -25.363900 7.355680 5.210409 5.360694 -2.978523 18.008915 -124.516643 -6.956625 -8.785062 110.649975 -0.753664 1.227620 -25.113512 0.191100 -0.000000 -66.036500 1.785426 -3.024578 -5.879255 -0.873713 -3.548965 -4.466899 -7.586135 -3.881884 0.142729 13.964848 -6.325317 -14.448429 -4.585190 -0.263014 -2.752071 0.000000 0.000000 0.000000 -6.266912 5.350107 4.563898 -60.128784 2.670572 18.070354 -2.238540 -35.420343 -0.016301 3.608371 9.635666 0.308296 -0.073981 0.072570 -0.000000 0.000000 0.000000 0.000000 0.000000 0.000000 0.000000 26.837543 -4.376187 5.286305 65.396280 -6.643238 -2.523647 2.626918 6.603484 -0.002316 2.333917 -7.257561 -0.144939 0.033757 -0.045247 0.000000 0.000000 0.000000 0.000000 0.000000 0.000000 0.000000 
-6.900631 11.812277 1.580496 32.236011 -86.854167 27.352250 -8.080917 -3.543843 4.563664 -1.858995 -26.579578 -117.084186 4.586690 7.272648 107.168471 2.955287 3.101132 -42.156606 -3.040700 -0.000000 -26.478300 7.433394 5.278674 5.503958 -3.153487 17.962417 -124.904709 -7.085959 -8.867262 111.589927 -0.902097 0.926304 -26.661395 0.314400 0.000000 -65.456700 1.791622 -3.097900 -6.247749 -0.872882 -3.646153 -4.537085 -7.608531 -3.984072 0.208966 14.011744 -6.359906 -14.590962 -4.610757 -0.264532 -2.798705 0.000000 0.000000 0.000000 -6.517604 5.401666 4.633635 -59.912515 2.901850 18.086014 -2.299457 -34.461463 -0.015389 2.611736 11.081310 0.258562 -0.067835 0.064105 -0.000000 0.000000 0.000000 0.000000 0.000000 0.000000 0.000000 27.006566 -4.467414 5.291617 65.390096 -6.916438 -4.096488 2.539231 5.581220 -0.002957 1.765691 -7.236379 -0.108750 0.034972 -0.044146 0.000000 0.000000 0.000000 0.000000 0.000000 0.000000 0.000000 
-7.033682 11.731610 1.568965 33.419152 -86.556091 26.716391 -8.093253 -3.552127 4.731846 -1.619694 -26.941229 -117.595180 4.737100 7.311396 108.081036 2.967679 3.059360 -42.527855 -3.053800 -0.000000 -27.549700 7.499319 5.332740 5.641639 -3.310120 17.954229 -125.234226 -7.215698 -8.928044 112.437789 -1.022602 0.680090 -27.870064 0.425700 -0.000000 -65.325200 1.804684 -3.153137 -6.601755 -0.869885 -3.724324 -4.609908 -7.620503 -4.067560 0.256415 14.022255 -6.339689 -14.723564 -4.639369 -0.266337 -2.844602 0.000000 0.000000 0.000000 -6.775734 5.406077 4.713277 -59.698877 3.008408 18.016251 -2.367832 -33.387359 -0.014584 1.635079 12.392859 0.183534 -0.062582 0.057860 -0.000000 0.000000 0.000000 0.000000 0.000000 0.000000 0.000000 27.128912 -4.483464 5.311844 65.418741 -7.079546 -5.478543 2.463268 4.666568 -0.003454 1.316405 -7.277377 -0.080959 0.035619 -0.042927 0.000000 0.000000 0.000000 0.000000 0.000000 0.000000 0.000000 
-7.165630 11.663968 1.557673 34.181044 -86.303912 26.451674 -8.118791 -3.564740 4.893070 -1.393520 -27.219821 -117.965219 4.867192 7.338151 108.854639 2.982277 3.053100 -42.851260 -3.078100 0.000000 -28.620000 7.556590 5.372885 5.776138 -3.453439 17.980952 -125.498744 -7.344091 -8.966916 113.191339 -1.112964 0.485530 -28.752712 0.516900 0.000000 -65.537699 1.823958 -3.187494 -6.945748 -0.865124 -3.780775 -4.690375 -7.622288 -4.130107 0.272631 13.986595 -6.210888 -14.825209 -4.677146 -0.269248 -2.883616 0.000000 0.000000 0.000000 -7.030589 5.323986 4.804810 -59.500452 3.021006 17.835979 -2.441430 -32.165539 -0.013868 0.730023 13.479510 0.092814 -0.058394 0.054316 -0.000000 0.000000 0.000000 0.000000 0.000000 0.000000 0.000000 27.205177 -4.368822 5.350606 65.503754 -7.190038 -6.761600 2.398354 3.850660 -0.003805 0.989150 -7.395990 -0.061268 0.035591 -0.041628 0.000000 0.000000 0.000000 0.000000 0.000000 0.000000 0.000000 
-7.296495 11.610449 1.546887 34.552994 -86.100121 26.517857 -8.157837 -3.581439 5.043077 -1.190513 -27.414308 -118.174143 4.971622 7.352975 109.485817 3.003209 3.081348 -43.167983 -3.118700 0.000000 -29.519401 7.604864 5.398645 5.901262 -3.569019 18.045048 -125.667282 -7.464124 -8.983059 113.841577 -1.175594 0.335047 -29.353646 0.585600 -0.000000 -66.018200 1.854428 -3.198574 -7.267807 -0.857501 -3.812670 -4.771989 -7.613547 -4.168320 0.269294 13.916851 -6.036238 -14.918689 -4.717773 -0.272415 -2.922738 0.000000 0.000000 0.000000 -7.283418 5.192723 4.902422 -59.307626 2.869699 17.585343 -2.519919 -30.790727 -0.013285 -0.083905 14.357661 -0.003599 -0.055455 0.053365 -0.000000 0.000000 0.000000 0.000000 0.000000 0.000000 0.000000 27.237400 -4.187513 5.406790 65.620111 -7.168875 -7.742662 2.350054 3.133110 -0.004090 0.776036 -7.630148 -0.049176 0.035203 -0.039879 0.000000 0.000000 0.000000 0.000000 0.000000 0.000000 0.000000 
-7.426817 11.571598 1.536566 34.623239 -85.940115 26.823916 -8.208853 -3.598337 5.183957 -1.020833 -27.534162 -118.210421 5.045721 7.355041 109.967457 3.032219 3.140118 -43.496498 -3.176699 -0.000000 -30.251200 7.647567 5.408387 6.018030 -3.647486 18.141422 -125.714484 -7.566010 -8.977519 114.375024 -1.216320 0.222394 -29.746576 0.634200 0.000000 -66.619200 1.894383 -3.186993 -7.573213 -0.847521 -3.820789 -4.857128 -7.595478 -4.183109 0.242246 13.812742 -5.800577 -14.994381 -4.762973 -0.276116 -2.958825 0.000000 0.000000 0.000000 -7.523851 4.992979 5.006655 -59.125148 2.576770 17.245444 -2.600822 -29.285857 -0.012830 -0.787730 15.039651 -0.096606 -0.053700 0.054842 -0.000000 0.000000 0.000000 0.000000 0.000000 0.000000 0.000000 27.228304 -3.925104 5.479764 65.769312 -7.032159 -8.449845 2.317621 2.511961 -0.004320 0.659288 -7.957475 -0.043282 0.034583 -0.037901 0.000000 0.000000 0.000000 0.000000 0.000000 0.000000 0.000000 
-7.557208 11.547830 1.526599 34.491945 -85.817065 27.269533 -8.269350 -3.610595 5.317729 -0.894768 -27.590971 -118.067821 5.084983 7.343933 110.291996 3.069817 3.220380 -43.849788 -3.250100 -0.000001 -30.802500 7.689094 5.400785 6.127267 -3.677842 18.261835 -125.614764 -7.638985 -8.952387 114.777165 -1.242905 0.140841 -30.017249 0.667801 0.000000 -67.216500 1.938964 -3.156078 -7.866891 -0.835838 -3.808405 -4.945821 -7.568001 -4.177617 0.194222 13.676637 -5.505832 -15.049830 -4.811751 -0.280266 -2.990777 0.000000 0.000000 0.000000 -7.743152 4.735165 5.116084 -58.952616 2.131850 16.818882 -2.682630 -27.663468 -0.012506 -1.358527 15.528908 -0.177407 -0.053106 0.058574 -0.000000 0.000000 0.000000 0.000000 0.000000 0.000000 0.000000 27.177950 -3.587299 5.565756 65.946101 -6.758123 -8.944060 2.297289 1.953683 -0.004489 0.612332 -8.314689 -0.041888 0.033853 -0.036114 0.000000 0.000000 0.000000 0.000000 0.000000 0.000000 0.000000 
-7.688450 11.539445 1.516978 34.196769 -85.726063 27.818977 -8.338978 -3.614297 5.448749 -0.813290 -27.589776 -117.748601 5.087751 7.319729 110.455433 3.113280 3.308752 -44.221308 -3.332200 0.000001 -31.241400 7.732150 5.372441 6.230225 -3.642333 18.403820 -125.341306 -7.671249 -8.909487 115.029801 -1.264282 0.080867 -30.250555 0.694100 0.000000 -67.708500 1.985440 -3.107965 -8.157370 -0.823114 -3.777954 -5.039212 -7.533020 -4.154115 0.126864 13.514860 -5.168450 -15.082914 -4.862314 -0.284726 -3.017178 0.000000 0.000000 0.000000 -7.933226 4.414180 5.227856 -58.790988 1.553033 16.283626 -2.761580 -25.956029 -0.012296 -1.769809 15.825351 -0.237603 -0.053490 0.064274 -0.000000 0.000000 0.000000 0.000000 0.000000 0.000000 0.000000 27.090800 -3.194232 5.660367 66.135375 -6.341974 -9.178642 2.289930 1.489509 -0.004629 0.614537 -8.662376 -0.043892 0.033282 -0.034802 0.000000 0.000000 0.000000 0.000000 0.000000 0.000000 0.000000 
